<svg xmlns="http://www.w3.org/2000/svg" viewBox="0 0 74.56 74.56"><defs><style>.cls-1{fill:#00a0bc;}</style></defs><title>wantedly</title><g id="レイヤー_2" data-name="レイヤー 2"><g id="レイヤー_1-2" data-name="レイヤー 1"><path class="cls-1" d="M66.07,55.29H55.45L50.76,44,46.07,55.29H35.44L16.21,9.05H26.95L40.75,42.24l4.63-11.13L36.21,9.05H46.95l3.81,9.15,3.81-9.15H65.3L56.13,31.11l4.63,11.13L74.56,9.05V3.93A3.94,3.94,0,0,0,70.64,0H3.93A3.94,3.94,0,0,0,0,3.94v66.7H0a3.94,3.94,0,0,0,3.94,3.92H70.63a3.94,3.94,0,0,0,3.94-3.92V34.87Z"/></g></g></svg>